<mxfile host="app.diagrams.net" agent="Mozilla/5.0 (Windows NT 10.0; Win64; x64) AppleWebKit/537.36 (KHTML, like Gecko) Chrome/124.0.0.0 Safari/537.36" version="24.7.7">
  <diagram name="start GUI" id="iksDxQ5HEGY_t7do6rFN">
    <mxGraphModel dx="1434" dy="738" grid="1" gridSize="10" guides="1" tooltips="1" connect="1" arrows="1" fold="1" page="1" pageScale="1" pageWidth="850" pageHeight="1100" math="0" shadow="0">
      <root>
        <mxCell id="0" />
        <mxCell id="1" style="locked=1;" parent="0" />
        <mxCell id="JEiM4xDWkNpShPy7EBwu-5" value="&lt;font color=&quot;#845444&quot;&gt;The alleged gods&lt;/font&gt;" style="strokeWidth=1;shadow=0;dashed=0;align=center;html=1;shape=mxgraph.mockup.containers.window;align=left;verticalAlign=top;spacingLeft=8;strokeColor2=#008cff;strokeColor3=#c4c4c4;fontColor=#ffffff;mainText=;fontSize=17;labelBackgroundColor=none;whiteSpace=wrap;fillColor=#F8F4E4;strokeColor=#432D57;" parent="1" vertex="1">
          <mxGeometry x="400" y="70" width="560" height="490" as="geometry" />
        </mxCell>
        <mxCell id="JEiM4xDWkNpShPy7EBwu-6" value="Untitled Layer" style="" parent="0" />
        <mxCell id="JEiM4xDWkNpShPy7EBwu-8" value="" style="endArrow=none;html=1;rounded=0;strokeColor=#FF3333;shape=link;strokeWidth=2;" parent="JEiM4xDWkNpShPy7EBwu-6" edge="1">
          <mxGeometry width="50" height="50" relative="1" as="geometry">
            <mxPoint x="380" y="220" as="sourcePoint" />
            <mxPoint x="980" y="220" as="targetPoint" />
          </mxGeometry>
        </mxCell>
        <mxCell id="JEiM4xDWkNpShPy7EBwu-9" value="" style="endArrow=none;html=1;rounded=0;strokeColor=#FF3333;shape=link;strokeWidth=2;" parent="JEiM4xDWkNpShPy7EBwu-6" edge="1">
          <mxGeometry width="50" height="50" relative="1" as="geometry">
            <mxPoint x="380" y="480" as="sourcePoint" />
            <mxPoint x="980" y="480" as="targetPoint" />
          </mxGeometry>
        </mxCell>
        <mxCell id="brKPZrXSi54EyfQTI8ei-2" value="" style="endArrow=none;html=1;rounded=0;strokeColor=#FF3333;shape=link;strokeWidth=2;" parent="JEiM4xDWkNpShPy7EBwu-6" edge="1">
          <mxGeometry width="50" height="50" relative="1" as="geometry">
            <mxPoint x="380" y="160" as="sourcePoint" />
            <mxPoint x="980" y="160" as="targetPoint" />
          </mxGeometry>
        </mxCell>
        <mxCell id="brKPZrXSi54EyfQTI8ei-6" value="" style="endArrow=none;html=1;rounded=0;strokeColor=#FF3333;shape=link;strokeWidth=2;" parent="JEiM4xDWkNpShPy7EBwu-6" edge="1">
          <mxGeometry width="50" height="50" relative="1" as="geometry">
            <mxPoint x="380" y="320" as="sourcePoint" />
            <mxPoint x="980" y="320" as="targetPoint" />
          </mxGeometry>
        </mxCell>
        <mxCell id="iSBlDA8Mxaq1-SkoRNaC-2" value="&lt;b style=&quot;font-size: 17px;&quot;&gt;&lt;font color=&quot;#845444&quot; style=&quot;font-size: 17px;&quot;&gt;User Choice:&lt;/font&gt;&lt;/b&gt;" style="rounded=0;whiteSpace=wrap;html=1;fillColor=#DFBA89;fontColor=#ffffff;fontSize=17;" vertex="1" parent="JEiM4xDWkNpShPy7EBwu-6">
          <mxGeometry x="410" y="330" width="540" height="40" as="geometry" />
        </mxCell>
        <mxCell id="iSBlDA8Mxaq1-SkoRNaC-4" value="&lt;b&gt;&lt;font style=&quot;font-size: 30px;&quot; color=&quot;#845444&quot;&gt;Computer Score: / Your Score:&lt;/font&gt;&lt;/b&gt;" style="rounded=0;whiteSpace=wrap;html=1;fillColor=#F6ECDB;fontColor=#ffffff;" vertex="1" parent="JEiM4xDWkNpShPy7EBwu-6">
          <mxGeometry x="410" y="380" width="540" height="90" as="geometry" />
        </mxCell>
        <mxCell id="iSBlDA8Mxaq1-SkoRNaC-18" style="edgeStyle=orthogonalEdgeStyle;rounded=0;orthogonalLoop=1;jettySize=auto;html=1;exitX=1;exitY=0.5;exitDx=0;exitDy=0;entryX=0;entryY=0.5;entryDx=0;entryDy=0;" edge="1" parent="JEiM4xDWkNpShPy7EBwu-6" source="iSBlDA8Mxaq1-SkoRNaC-5" target="iSBlDA8Mxaq1-SkoRNaC-4">
          <mxGeometry relative="1" as="geometry" />
        </mxCell>
        <mxCell id="iSBlDA8Mxaq1-SkoRNaC-19" style="edgeStyle=orthogonalEdgeStyle;rounded=0;orthogonalLoop=1;jettySize=auto;html=1;exitX=1;exitY=0.5;exitDx=0;exitDy=0;entryX=0;entryY=0.5;entryDx=0;entryDy=0;" edge="1" parent="JEiM4xDWkNpShPy7EBwu-6" source="pC1RuJ3U9QiAjzZkFF1L-12" target="iSBlDA8Mxaq1-SkoRNaC-2">
          <mxGeometry relative="1" as="geometry" />
        </mxCell>
        <mxCell id="iSBlDA8Mxaq1-SkoRNaC-20" style="edgeStyle=orthogonalEdgeStyle;rounded=0;orthogonalLoop=1;jettySize=auto;html=1;exitX=1;exitY=0.5;exitDx=0;exitDy=0;entryX=0;entryY=0.5;entryDx=0;entryDy=0;" edge="1" parent="JEiM4xDWkNpShPy7EBwu-6" source="pC1RuJ3U9QiAjzZkFF1L-11" target="brKPZrXSi54EyfQTI8ei-8">
          <mxGeometry relative="1" as="geometry" />
        </mxCell>
        <mxCell id="XhFEnANj9DKwVtLJGlU8-2" value="Untitled Layer" style="" parent="0" />
        <mxCell id="brKPZrXSi54EyfQTI8ei-1" value="&lt;font color=&quot;#845444&quot;&gt;&lt;span style=&quot;font-size: 30px;&quot;&gt;&lt;b&gt;Rounds # of #&lt;/b&gt;&lt;/span&gt;&lt;/font&gt;" style="text;html=1;align=center;verticalAlign=middle;whiteSpace=wrap;rounded=0;fontColor=#FFFFFF;" parent="XhFEnANj9DKwVtLJGlU8-2" vertex="1">
          <mxGeometry x="410" y="100" width="540" height="60" as="geometry" />
        </mxCell>
        <mxCell id="brKPZrXSi54EyfQTI8ei-3" value="&lt;font color=&quot;#845444&quot;&gt;&lt;span style=&quot;font-size: 30px;&quot;&gt;&lt;b&gt;&amp;lt;question here&amp;gt;&lt;/b&gt;&lt;/span&gt;&lt;/font&gt;" style="text;html=1;align=center;verticalAlign=middle;whiteSpace=wrap;rounded=0;fontColor=#FFFFFF;" parent="XhFEnANj9DKwVtLJGlU8-2" vertex="1">
          <mxGeometry x="410" y="160" width="540" height="60" as="geometry" />
        </mxCell>
        <mxCell id="brKPZrXSi54EyfQTI8ei-8" value="Option 1" style="rounded=1;whiteSpace=wrap;html=1;fillColor=#276FBF;fontColor=#FFFFFF;fontStyle=1;fontSize=22;" parent="XhFEnANj9DKwVtLJGlU8-2" vertex="1">
          <mxGeometry x="410" y="240" width="260" height="60" as="geometry" />
        </mxCell>
        <mxCell id="pC1RuJ3U9QiAjzZkFF1L-2" value="PLAY SUMMARY" style="rounded=1;whiteSpace=wrap;html=1;fillColor=#be2727;fontColor=#FFFFFF;fontStyle=1;fontSize=22;" parent="XhFEnANj9DKwVtLJGlU8-2" vertex="1">
          <mxGeometry x="410" y="490" width="170" height="60" as="geometry" />
        </mxCell>
        <mxCell id="pC1RuJ3U9QiAjzZkFF1L-3" value="HELP" style="rounded=1;whiteSpace=wrap;html=1;fillColor=#276FBF;fontColor=#FFFFFF;fontStyle=1;fontSize=22;" parent="XhFEnANj9DKwVtLJGlU8-2" vertex="1">
          <mxGeometry x="595" y="490" width="170" height="60" as="geometry" />
        </mxCell>
        <mxCell id="pC1RuJ3U9QiAjzZkFF1L-4" value="NEXT" style="rounded=1;whiteSpace=wrap;html=1;fillColor=#DFBA89;fontColor=#FFFFFF;fontStyle=1;fontSize=22;" parent="XhFEnANj9DKwVtLJGlU8-2" vertex="1">
          <mxGeometry x="780" y="490" width="170" height="60" as="geometry" />
        </mxCell>
        <mxCell id="pC1RuJ3U9QiAjzZkFF1L-18" value="BE2727" style="rounded=1;whiteSpace=wrap;html=1;fillColor=#BE2727;fontColor=#FFFFFF;fontStyle=1;fontSize=22;" parent="XhFEnANj9DKwVtLJGlU8-2" vertex="1">
          <mxGeometry x="410" y="560" width="170" height="30" as="geometry" />
        </mxCell>
        <mxCell id="pC1RuJ3U9QiAjzZkFF1L-19" value="276FBF" style="rounded=1;whiteSpace=wrap;html=1;fillColor=#276FBF;fontColor=#FFFFFF;fontStyle=1;fontSize=22;" parent="XhFEnANj9DKwVtLJGlU8-2" vertex="1">
          <mxGeometry x="597" y="560" width="170" height="30" as="geometry" />
        </mxCell>
        <mxCell id="pC1RuJ3U9QiAjzZkFF1L-21" value="DFBA89" style="rounded=1;whiteSpace=wrap;html=1;fillColor=#DFBA89;fontColor=#FFFFFF;fontStyle=1;fontSize=22;" parent="XhFEnANj9DKwVtLJGlU8-2" vertex="1">
          <mxGeometry x="780" y="560" width="170" height="30" as="geometry" />
        </mxCell>
        <mxCell id="iSBlDA8Mxaq1-SkoRNaC-1" value="Option 2" style="rounded=1;whiteSpace=wrap;html=1;fillColor=#276FBF;fontColor=#FFFFFF;fontStyle=1;fontSize=22;" vertex="1" parent="XhFEnANj9DKwVtLJGlU8-2">
          <mxGeometry x="690" y="240" width="260" height="60" as="geometry" />
        </mxCell>
        <mxCell id="XhFEnANj9DKwVtLJGlU8-17" value="Untitled Layer" style="" parent="0" />
        <mxCell id="l0HrfNPzoSizOLaQtWFR-5" value="Untitled Layer" parent="0" />
        <mxCell id="iSBlDA8Mxaq1-SkoRNaC-8" style="edgeStyle=orthogonalEdgeStyle;rounded=0;orthogonalLoop=1;jettySize=auto;html=1;" edge="1" parent="l0HrfNPzoSizOLaQtWFR-5" source="pC1RuJ3U9QiAjzZkFF1L-7">
          <mxGeometry relative="1" as="geometry">
            <mxPoint x="400" y="130" as="targetPoint" />
          </mxGeometry>
        </mxCell>
        <mxCell id="pC1RuJ3U9QiAjzZkFF1L-7" value="ROW 0" style="rounded=0;whiteSpace=wrap;html=1;fillColor=#f8cecc;strokeColor=#b85450;" parent="l0HrfNPzoSizOLaQtWFR-5" vertex="1">
          <mxGeometry x="200" y="110" width="120" height="40" as="geometry" />
        </mxCell>
        <mxCell id="iSBlDA8Mxaq1-SkoRNaC-10" style="edgeStyle=orthogonalEdgeStyle;rounded=0;orthogonalLoop=1;jettySize=auto;html=1;exitX=0.5;exitY=1;exitDx=0;exitDy=0;entryX=0;entryY=0.5;entryDx=0;entryDy=0;" edge="1" parent="l0HrfNPzoSizOLaQtWFR-5" source="pC1RuJ3U9QiAjzZkFF1L-8" target="pC1RuJ3U9QiAjzZkFF1L-7">
          <mxGeometry relative="1" as="geometry" />
        </mxCell>
        <mxCell id="iSBlDA8Mxaq1-SkoRNaC-13" style="edgeStyle=orthogonalEdgeStyle;rounded=0;orthogonalLoop=1;jettySize=auto;html=1;exitX=0.5;exitY=1;exitDx=0;exitDy=0;entryX=0;entryY=0.5;entryDx=0;entryDy=0;" edge="1" parent="l0HrfNPzoSizOLaQtWFR-5" source="pC1RuJ3U9QiAjzZkFF1L-8" target="pC1RuJ3U9QiAjzZkFF1L-10">
          <mxGeometry relative="1" as="geometry" />
        </mxCell>
        <mxCell id="iSBlDA8Mxaq1-SkoRNaC-14" style="edgeStyle=orthogonalEdgeStyle;rounded=0;orthogonalLoop=1;jettySize=auto;html=1;exitX=0.5;exitY=1;exitDx=0;exitDy=0;entryX=0;entryY=0.5;entryDx=0;entryDy=0;" edge="1" parent="l0HrfNPzoSizOLaQtWFR-5" source="pC1RuJ3U9QiAjzZkFF1L-8" target="pC1RuJ3U9QiAjzZkFF1L-13">
          <mxGeometry relative="1" as="geometry" />
        </mxCell>
        <mxCell id="pC1RuJ3U9QiAjzZkFF1L-8" value="play_frame" style="rounded=0;whiteSpace=wrap;html=1;fillColor=#fff2cc;strokeColor=#d6b656;" parent="l0HrfNPzoSizOLaQtWFR-5" vertex="1">
          <mxGeometry x="80" y="60" width="120" height="40" as="geometry" />
        </mxCell>
        <mxCell id="iSBlDA8Mxaq1-SkoRNaC-7" style="edgeStyle=orthogonalEdgeStyle;rounded=0;orthogonalLoop=1;jettySize=auto;html=1;exitX=1;exitY=0.5;exitDx=0;exitDy=0;" edge="1" parent="l0HrfNPzoSizOLaQtWFR-5" source="pC1RuJ3U9QiAjzZkFF1L-10">
          <mxGeometry relative="1" as="geometry">
            <mxPoint x="400" y="190" as="targetPoint" />
          </mxGeometry>
        </mxCell>
        <mxCell id="pC1RuJ3U9QiAjzZkFF1L-10" value="ROW&amp;nbsp;&lt;span style=&quot;background-color: initial;&quot;&gt;1&lt;/span&gt;&lt;div&gt;&lt;div&gt;&lt;br&gt;&lt;/div&gt;&lt;/div&gt;" style="rounded=0;whiteSpace=wrap;html=1;fillColor=#f8cecc;strokeColor=#b85450;" parent="l0HrfNPzoSizOLaQtWFR-5" vertex="1">
          <mxGeometry x="200" y="170" width="120" height="40" as="geometry" />
        </mxCell>
        <mxCell id="pC1RuJ3U9QiAjzZkFF1L-11" value="ROW 0" style="rounded=0;whiteSpace=wrap;html=1;fillColor=#f8cecc;strokeColor=#b85450;" parent="l0HrfNPzoSizOLaQtWFR-5" vertex="1">
          <mxGeometry x="250" y="280" width="120" height="40" as="geometry" />
        </mxCell>
        <mxCell id="pC1RuJ3U9QiAjzZkFF1L-12" value="ROW 1" style="rounded=0;whiteSpace=wrap;html=1;fillColor=#f8cecc;strokeColor=#b85450;" parent="l0HrfNPzoSizOLaQtWFR-5" vertex="1">
          <mxGeometry x="250" y="330" width="120" height="40" as="geometry" />
        </mxCell>
        <mxCell id="iSBlDA8Mxaq1-SkoRNaC-6" style="edgeStyle=orthogonalEdgeStyle;rounded=0;orthogonalLoop=1;jettySize=auto;html=1;exitX=1;exitY=0.5;exitDx=0;exitDy=0;" edge="1" parent="l0HrfNPzoSizOLaQtWFR-5" source="pC1RuJ3U9QiAjzZkFF1L-13">
          <mxGeometry relative="1" as="geometry">
            <mxPoint x="400" y="520" as="targetPoint" />
          </mxGeometry>
        </mxCell>
        <mxCell id="pC1RuJ3U9QiAjzZkFF1L-13" value="ROW 4" style="rounded=0;whiteSpace=wrap;html=1;fillColor=#f8cecc;strokeColor=#b85450;" parent="l0HrfNPzoSizOLaQtWFR-5" vertex="1">
          <mxGeometry x="200" y="500" width="120" height="40" as="geometry" />
        </mxCell>
        <mxCell id="pC1RuJ3U9QiAjzZkFF1L-14" value="row=4,column=0" style="rounded=0;whiteSpace=wrap;html=1;fillColor=#f8cecc;strokeColor=#b85450;" parent="l0HrfNPzoSizOLaQtWFR-5" vertex="1">
          <mxGeometry x="440" y="610" width="120" height="40" as="geometry" />
        </mxCell>
        <mxCell id="pC1RuJ3U9QiAjzZkFF1L-15" value="row=4,column=2" style="rounded=0;whiteSpace=wrap;html=1;fillColor=#f8cecc;strokeColor=#b85450;" parent="l0HrfNPzoSizOLaQtWFR-5" vertex="1">
          <mxGeometry x="810" y="610" width="120" height="40" as="geometry" />
        </mxCell>
        <mxCell id="pC1RuJ3U9QiAjzZkFF1L-16" value="row=4,column=1" style="rounded=0;whiteSpace=wrap;html=1;fillColor=#f8cecc;strokeColor=#b85450;" parent="l0HrfNPzoSizOLaQtWFR-5" vertex="1">
          <mxGeometry x="620" y="610" width="120" height="40" as="geometry" />
        </mxCell>
        <mxCell id="pC1RuJ3U9QiAjzZkFF1L-17" style="edgeStyle=orthogonalEdgeStyle;rounded=0;orthogonalLoop=1;jettySize=auto;html=1;exitX=0.5;exitY=1;exitDx=0;exitDy=0;" parent="l0HrfNPzoSizOLaQtWFR-5" source="pC1RuJ3U9QiAjzZkFF1L-14" target="pC1RuJ3U9QiAjzZkFF1L-14" edge="1">
          <mxGeometry relative="1" as="geometry" />
        </mxCell>
        <mxCell id="iSBlDA8Mxaq1-SkoRNaC-12" style="edgeStyle=orthogonalEdgeStyle;rounded=0;orthogonalLoop=1;jettySize=auto;html=1;exitX=0.5;exitY=1;exitDx=0;exitDy=0;entryX=0;entryY=0.5;entryDx=0;entryDy=0;" edge="1" parent="l0HrfNPzoSizOLaQtWFR-5" source="iSBlDA8Mxaq1-SkoRNaC-3" target="pC1RuJ3U9QiAjzZkFF1L-12">
          <mxGeometry relative="1" as="geometry" />
        </mxCell>
        <mxCell id="iSBlDA8Mxaq1-SkoRNaC-15" style="edgeStyle=orthogonalEdgeStyle;rounded=0;orthogonalLoop=1;jettySize=auto;html=1;exitX=0.5;exitY=1;exitDx=0;exitDy=0;entryX=0;entryY=0.5;entryDx=0;entryDy=0;" edge="1" parent="l0HrfNPzoSizOLaQtWFR-5" source="iSBlDA8Mxaq1-SkoRNaC-3" target="iSBlDA8Mxaq1-SkoRNaC-5">
          <mxGeometry relative="1" as="geometry" />
        </mxCell>
        <mxCell id="iSBlDA8Mxaq1-SkoRNaC-16" style="edgeStyle=orthogonalEdgeStyle;rounded=0;orthogonalLoop=1;jettySize=auto;html=1;exitX=0.5;exitY=1;exitDx=0;exitDy=0;entryX=0;entryY=0.5;entryDx=0;entryDy=0;" edge="1" parent="l0HrfNPzoSizOLaQtWFR-5" source="iSBlDA8Mxaq1-SkoRNaC-3" target="pC1RuJ3U9QiAjzZkFF1L-11">
          <mxGeometry relative="1" as="geometry" />
        </mxCell>
        <mxCell id="iSBlDA8Mxaq1-SkoRNaC-3" value="option_frame" style="rounded=0;whiteSpace=wrap;html=1;fillColor=#d5e8d4;strokeColor=#82b366;" vertex="1" parent="l0HrfNPzoSizOLaQtWFR-5">
          <mxGeometry x="160" y="230" width="120" height="40" as="geometry" />
        </mxCell>
        <mxCell id="iSBlDA8Mxaq1-SkoRNaC-5" value="ROW 2" style="rounded=0;whiteSpace=wrap;html=1;fillColor=#f8cecc;strokeColor=#b85450;" vertex="1" parent="l0HrfNPzoSizOLaQtWFR-5">
          <mxGeometry x="250" y="400" width="120" height="40" as="geometry" />
        </mxCell>
      </root>
    </mxGraphModel>
  </diagram>
</mxfile>
